<svg width="51" height="55" viewBox="0 0 51 55" fill="none" xmlns="http://www.w3.org/2000/svg">
<path fill-rule="evenodd" clip-rule="evenodd" d="M14.8524 0.641036C17.5106 0.507266 18.3582 0.477539 25.1297 0.477539C31.9012 0.477539 32.7488 0.509743 35.4048 0.641036C38.0608 0.77233 39.8738 1.23557 41.4602 1.9069C43.1213 2.5931 44.6283 3.66574 45.8748 5.05299C47.1439 6.41299 48.1229 8.05788 48.7484 9.87616C49.3648 11.6102 49.7863 13.592 49.9087 16.4904C50.031 19.4011 50.0582 20.3276 50.0582 27.7271C50.0582 35.1291 50.0288 36.0556 49.9087 38.9614C49.7886 41.8597 49.3648 43.8415 48.7484 45.5756C48.1229 47.3941 47.1422 49.0417 45.8748 50.4037C44.6283 51.791 43.1213 52.8611 41.4602 53.5448C39.8738 54.2187 38.0608 54.6794 35.4093 54.8132C32.7488 54.947 31.9012 54.9767 25.1297 54.9767C18.3582 54.9767 17.5106 54.9445 14.8524 54.8132C12.2009 54.6819 10.3879 54.2187 8.80152 53.5448C7.13792 52.861 5.63065 51.7891 4.38463 50.4037C3.1164 49.0429 2.13498 47.3961 1.50879 45.5781C0.894638 43.844 0.473119 41.8622 0.350743 38.9638C0.228367 36.0531 0.201172 35.1266 0.201172 27.7271C0.201172 20.3251 0.230633 19.3987 0.350743 16.4953C0.470853 13.592 0.894638 11.6102 1.50879 9.87616C2.1359 8.05808 3.11808 6.41129 4.3869 5.05051C5.63115 3.6645 7.13691 2.59172 8.79925 1.9069C10.3856 1.23557 12.1986 0.774807 14.8501 0.641036H14.8524ZM35.2031 5.54596C32.5743 5.41467 31.7856 5.38742 25.1297 5.38742C18.4738 5.38742 17.6851 5.41467 15.0563 5.54596C12.6246 5.66734 11.3057 6.11077 10.4264 6.48483C9.26383 6.98028 8.43212 7.56738 7.55962 8.52112C6.73255 9.40066 6.09605 10.4714 5.69678 11.6548C5.35458 12.616 4.94892 14.0577 4.83788 16.7158C4.71777 19.5894 4.69284 20.4515 4.69284 27.7271C4.69284 35.0027 4.71777 35.8648 4.83788 38.7384C4.94892 41.3965 5.35458 42.8382 5.69678 43.7994C6.09564 44.981 6.73245 46.0537 7.55962 46.9331C8.36413 47.8373 9.34541 48.5334 10.4264 48.9694C11.3057 49.3435 12.6246 49.7869 15.0563 49.9083C17.6851 50.0396 18.4715 50.0668 25.1297 50.0668C31.7879 50.0668 32.5743 50.0396 35.2031 49.9083C37.6348 49.7869 38.9537 49.3435 39.833 48.9694C40.9956 48.4739 41.8273 47.8868 42.6998 46.9331C43.527 46.0537 44.1638 44.981 44.5626 43.7994C44.9048 42.8382 45.3105 41.3965 45.4215 38.7384C45.5416 35.8648 45.5666 35.0027 45.5666 27.7271C45.5666 20.4515 45.5416 19.5894 45.4215 16.7158C45.3105 14.0577 44.9048 12.616 44.5626 11.6548C44.1094 10.384 43.5723 9.47485 42.6998 8.52112C41.8951 7.6171 40.9156 6.92135 39.833 6.48483C38.9537 6.11077 37.6348 5.66734 35.2031 5.54596ZM21.9457 36.1274C23.7239 36.9366 25.7039 37.0458 27.5476 36.4364C29.3913 35.827 30.9843 34.5368 32.0544 32.7862C33.1246 31.0356 33.6055 28.9332 33.4151 26.838C33.2248 24.7429 32.3749 22.785 31.0106 21.2987C30.1409 20.3486 29.0893 19.6211 27.9315 19.1686C26.7737 18.7161 25.5386 18.5499 24.315 18.6818C23.0914 18.8137 21.9097 19.2405 20.8551 19.9316C19.8006 20.6226 18.8993 21.5606 18.2161 22.6781C17.533 23.7956 17.085 25.0648 16.9045 26.3943C16.7239 27.7237 16.8152 29.0804 17.1719 30.3666C17.5286 31.6529 18.1417 32.8367 18.9672 33.8328C19.7926 34.8289 20.8099 35.6126 21.9457 36.1274ZM16.0693 17.8231C17.2591 16.5225 18.6717 15.4908 20.2263 14.7869C21.7808 14.0831 23.447 13.7208 25.1297 13.7208C26.8124 13.7208 28.4786 14.0831 30.0331 14.7869C31.5877 15.4908 33.0003 16.5225 34.1901 17.8231C35.3799 19.1237 36.3237 20.6678 36.9677 22.3671C37.6116 24.0664 37.943 25.8878 37.943 27.7271C37.943 29.5665 37.6116 31.3878 36.9677 33.0871C36.3237 34.7864 35.3799 36.3305 34.1901 37.6311C31.7871 40.2578 28.528 41.7335 25.1297 41.7335C21.7314 41.7335 18.4723 40.2578 16.0693 37.6311C13.6664 35.0044 12.3164 31.4418 12.3164 27.7271C12.3164 24.0124 13.6664 20.4498 16.0693 17.8231ZM40.7848 15.8067C41.0797 15.5026 41.3157 15.137 41.479 14.7315C41.6422 14.3259 41.7294 13.8887 41.7353 13.4457C41.7412 13.0027 41.6658 12.5628 41.5134 12.1523C41.361 11.7417 41.1348 11.3687 40.8482 11.0554C40.5616 10.7421 40.2204 10.4949 39.8448 10.3283C39.4692 10.1617 39.0668 10.0792 38.6615 10.0857C38.2562 10.0922 37.8562 10.1874 37.4852 10.3659C37.1143 10.5444 36.7798 10.8024 36.5016 11.1247C35.9607 11.7515 35.6646 12.5841 35.6761 13.4457C35.6876 14.3073 36.0058 15.1301 36.5632 15.7394C37.1206 16.3487 37.8733 16.6966 38.6615 16.7091C39.4497 16.7217 40.2114 16.398 40.7848 15.8067Z" fill="white"/>
</svg>
