<svg width="55" height="60" viewBox="0 0 55 60" fill="none" xmlns="http://www.w3.org/2000/svg">
<path fill-rule="evenodd" clip-rule="evenodd" d="M40.3373 35.6277C39.6619 35.2586 36.351 33.4799 35.7345 33.2322C35.1181 32.9869 34.6694 32.8656 34.2184 33.6038C33.7697 34.337 32.4802 35.9968 32.0882 36.4873C31.6938 36.9802 31.3018 37.0397 30.6287 36.6731C29.9556 36.3015 27.7846 35.5261 25.2124 33.0191C23.2113 31.0671 21.8584 28.6567 21.4664 27.9185C21.0743 27.1828 21.4233 26.784 21.761 26.4173C22.0646 26.0878 22.434 25.5577 22.7717 25.1292C23.1094 24.6981 23.2204 24.3909 23.4448 23.898C23.6714 23.4075 23.5581 22.9789 23.3881 22.6098C23.2204 22.2407 21.8743 18.6165 21.3122 17.1426C20.7661 15.7082 20.2109 15.9039 19.7984 15.8792C19.4041 15.8594 18.9554 15.8544 18.5067 15.8544C18.0579 15.8544 17.3282 16.0377 16.7118 16.7759C16.0931 17.5117 14.3549 19.2928 14.3549 22.917C14.3549 26.5387 16.7662 30.039 17.1039 30.532C17.4415 31.0225 21.8516 38.4592 28.6072 41.6474C30.2163 42.4054 31.4695 42.8587 32.4462 43.1956C34.0598 43.758 35.5283 43.6787 36.6886 43.4879C37.9804 43.2774 40.6727 41.7068 41.2347 39.9876C41.7944 38.2684 41.7944 36.7945 41.6267 36.4873C41.459 36.1801 41.0103 35.9968 40.335 35.6277H40.3373ZM28.0497 53.9666H28.0407C24.0282 53.9674 20.0893 52.7884 16.637 50.553L15.8212 50.0229L7.34094 52.4555L9.6049 43.4186L9.07234 42.4921C6.82908 38.5888 5.64193 34.0714 5.64806 29.4618C5.6526 15.9609 15.7011 4.97686 28.0588 4.97686C34.0417 4.97686 39.6664 7.52841 43.8952 12.1559C45.981 14.4265 47.6342 17.1266 48.7592 20.1001C49.8842 23.0736 50.4586 26.2614 50.4492 29.4792C50.4446 42.9801 40.3962 53.9666 28.0497 53.9666ZM47.1133 8.64069C44.6163 5.89325 41.6454 3.7148 38.3726 2.23159C35.0999 0.748384 31.5904 -0.0100978 28.0475 0.000101511C13.1946 0.000101511 1.10201 13.2161 1.09747 29.4594C1.09059 34.6287 2.33115 39.7086 4.69398 44.1865L0.87085 59.4537L15.1572 55.3564C19.1092 57.71 23.5379 58.9433 28.0384 58.9434H28.0497C42.9026 58.9434 54.9952 45.7274 54.9998 29.4817C55.0107 25.6104 54.3194 21.7752 52.9657 18.1979C51.612 14.6207 49.6228 11.3723 47.1133 8.64069Z" fill="white"/>
</svg>
